<?xml version="1.0" standalone="no"?>
<!DOCTYPE svg PUBLIC "-//W3C//DTD SVG 20010904//EN"
 "http://www.w3.org/TR/2001/REC-SVG-20010904/DTD/svg10.dtd">
<svg version="1.0" xmlns="http://www.w3.org/2000/svg"
 width="500.000000pt" height="500.000000pt" viewBox="0 0 500.000000 500.000000"
 preserveAspectRatio="xMidYMid meet">
<metadata>
Created by potrace 1.11, written by Peter Selinger 2001-2013
</metadata>
<g transform="translate(0.000000,500.000000) scale(0.100000,-0.100000)"
fill="#000000" stroke="none">
<path d="M2650 4575 c-156 -31 -309 -105 -429 -206 l-66 -55 -71 32 c-278 128
-613 109 -879 -50 -247 -148 -419 -418 -450 -706 -9 -76 -8 -75 -56 -89 -64
-19 -176 -80 -239 -129 -221 -175 -343 -432 -335 -707 15 -473 406 -844 875
-830 104 4 133 7 200 25 52 14 56 13 71 -22 25 -61 107 -175 173 -241 252
-252 624 -331 965 -205 57 21 207 104 217 120 12 18 25 5 55 -54 127 -251 353
-544 590 -764 129 -119 364 -284 406 -284 29 0 73 41 73 69 0 38 -14 53 -104
113 -191 127 -395 316 -550 508 -112 140 -316 460 -316 496 0 5 15 18 33 30
17 11 64 41 102 66 204 133 357 207 475 232 98 20 290 11 275 -13 -13 -22 -16
-122 -5 -187 13 -78 40 -134 64 -134 8 0 21 -3 29 -6 18 -7 67 35 71 61 2 11
-2 38 -8 60 -18 60 -19 136 -2 175 28 68 106 117 200 127 63 7 93 27 102 70 8
41 -30 83 -76 83 -61 0 -169 -32 -227 -66 l-58 -36 -80 13 c-105 17 -244 14
-329 -5 -149 -35 -270 -96 -564 -283 -422 -270 -480 -295 -683 -299 -145 -2
-217 13 -349 74 -179 82 -350 287 -388 465 -14 67 -7 213 13 283 36 126 119
234 228 298 44 26 133 64 167 71 8 2 35 8 60 13 50 12 124 19 274 27 55 3 102
8 105 9 3 2 27 7 53 10 26 4 85 17 130 31 253 73 399 188 543 430 8 14 15 15
40 5 47 -18 104 -24 198 -22 99 2 136 15 155 54 11 23 10 32 -2 57 -20 38 -32
41 -141 37 -177 -7 -294 54 -357 186 -22 45 -39 58 -84 58 -26 0 -64 -40 -64
-67 0 -42 49 -128 109 -191 l22 -22 -33 -63 c-49 -94 -163 -202 -271 -257 -48
-24 -93 -45 -100 -47 -6 -1 -43 -11 -80 -22 -38 -11 -94 -23 -125 -27 -32 -3
-60 -8 -64 -11 -4 -2 10 31 33 74 49 96 68 166 66 245 -2 50 -6 63 -26 79 -31
26 -73 24 -98 -3 -16 -18 -22 -40 -25 -94 -3 -54 -11 -85 -36 -137 -36 -72
-130 -176 -163 -178 -10 -1 -22 -2 -26 -3 -5 -1 -30 -6 -57 -10 -80 -13 -216
-65 -292 -112 -80 -49 -177 -147 -217 -219 -65 -115 -90 -226 -91 -395 l-1
-94 -45 -14 c-49 -16 -260 -22 -320 -10 -126 25 -269 106 -369 208 -136 139
-206 324 -196 522 9 205 97 384 253 513 64 53 202 130 222 123 6 -2 26 -48 45
-103 38 -111 61 -139 110 -130 34 6 65 38 65 68 0 11 -12 49 -26 85 -30 75
-53 187 -48 234 17 165 37 238 96 348 168 315 523 480 873 406 53 -12 150 -48
206 -78 116 -62 210 -176 265 -321 34 -89 52 -110 96 -109 40 1 68 32 68 74 0
58 -101 264 -161 328 -8 9 -24 28 -37 42 l-23 26 60 46 c207 159 474 209 720
134 115 -34 244 -112 331 -198 83 -82 168 -218 148 -238 -7 -7 -17 -12 -22
-12 -6 0 -24 -14 -42 -31 l-32 -31 -48 25 c-132 67 -254 88 -449 78 -31 -1
-64 -51 -58 -86 10 -47 33 -57 150 -60 59 -2 119 -6 132 -9 127 -29 221 -80
221 -120 0 -84 57 -170 170 -257 162 -124 254 -272 275 -444 6 -41 15 -66 31
-82 42 -42 100 -25 118 34 14 46 -32 233 -79 319 -31 58 -48 87 -55 94 -3 3
-22 26 -43 52 -21 27 -85 86 -142 133 -56 47 -106 93 -110 102 -21 51 -22 82
-4 112 29 48 61 63 136 64 127 1 213 -13 340 -55 255 -84 473 -276 596 -524
160 -322 134 -717 -66 -1015 -34 -51 -66 -94 -72 -96 -5 -1 -23 24 -38 57 -15
33 -49 88 -76 123 l-48 64 23 32 c12 18 37 76 54 129 29 85 33 112 36 222 4
172 -33 364 -78 403 -24 20 -67 22 -90 5 -35 -28 -36 -48 -11 -137 48 -172 40
-373 -21 -507 l-25 -54 -68 34 c-137 69 -285 103 -432 100 l-97 -2 -22 41
c-45 86 -140 167 -193 167 -26 0 -68 -29 -70 -47 0 -5 -2 -17 -4 -27 -2 -11 8
-29 25 -45 15 -14 46 -43 68 -64 62 -57 82 -147 57 -247 -18 -66 8 -111 64
-112 49 -2 71 27 84 110 11 71 11 71 47 77 19 3 64 3 100 0 306 -23 521 -187
586 -445 22 -87 15 -242 -15 -321 -62 -165 -195 -294 -359 -351 -96 -33 -270
-32 -357 2 -75 29 -145 68 -146 83 -4 39 4 110 18 157 23 76 23 79 11 105 -21
45 -88 53 -121 14 -17 -21 -41 -92 -53 -159 -24 -141 21 -355 108 -503 15 -26
28 -50 28 -52 0 -9 84 -129 141 -201 71 -90 277 -299 357 -362 62 -49 92 -52
129 -16 40 40 27 76 -55 148 -163 145 -320 317 -410 451 -40 59 -115 206 -108
212 1 2 20 -4 41 -13 99 -41 295 -52 410 -24 117 30 248 104 335 190 129 129
196 282 207 470 l6 104 67 79 c418 490 372 1212 -104 1646 -152 139 -410 263
-594 286 -26 4 -54 8 -62 10 -8 3 -40 5 -72 6 -56 2 -56 2 -74 43 -10 23 -41
77 -70 121 -126 194 -323 335 -551 397 -97 26 -314 33 -413 13z"/>
<path d="M1343 3915 c-29 -20 -37 -59 -18 -95 18 -36 110 -111 178 -146 l47
-24 -6 -58 c-28 -249 -154 -490 -332 -633 -185 -149 -350 -176 -502 -84 -65
39 -88 43 -119 18 -29 -24 -33 -71 -9 -105 32 -45 216 -123 261 -110 11 3 0
-184 -13 -208 -6 -11 -32 -31 -58 -43 -57 -27 -75 -64 -51 -105 56 -100 238 2
263 148 4 19 8 67 11 105 4 85 13 115 32 115 8 0 48 16 90 35 304 140 532 475
570 835 3 30 7 56 8 58 1 1 26 4 56 6 96 6 197 43 238 87 38 41 6 119 -50 119
-15 0 -51 -12 -80 -27 -46 -24 -65 -28 -139 -28 -72 0 -93 4 -140 27 -30 15
-80 50 -110 77 -58 54 -89 62 -127 36z"/>
<path d="M2867 2712 c-15 -9 -27 -21 -27 -27 0 -42 -97 -166 -178 -226 -102
-77 -275 -153 -395 -174 -63 -11 -213 -67 -277 -102 -36 -20 -93 -65 -127 -99
-73 -72 -81 -107 -38 -150 37 -37 72 -25 142 45 68 68 148 109 283 146 52 14
124 34 159 45 l63 19 24 -29 c36 -42 119 -92 177 -105 69 -15 156 -3 179 26
25 30 22 66 -6 94 -21 21 -33 24 -83 23 -54 -1 -125 20 -138 43 -3 4 27 30 67
57 125 85 225 192 268 288 26 57 26 96 -2 121 -29 25 -56 26 -91 5z"/>
</g>
</svg>
